HIERARCHY
ROOT joint_Root
{
	OFFSET 0.0 0.0 0.0
	CHANNELS 6 Xposition Yposition Zposition Zrotation Xrotation Yrotation 
	JOINT Hips
	{
		OFFSET 4.5925 91.4895 -427.239
		CHANNELS 6 Xposition Yposition Zposition Zrotation Xrotation Yrotation 
		JOINT Spine
		{
			OFFSET 15.7357 0.0 0.0
			CHANNELS 6 Xposition Yposition Zposition Zrotation Xrotation Yrotation 
			JOINT Chest
			{
				OFFSET 8.98455 -0.406207 0.0
				CHANNELS 6 Xposition Yposition Zposition Zrotation Xrotation Yrotation 
				JOINT Neck
				{
					OFFSET 16.3773 0.0 0.0
					CHANNELS 6 Xposition Yposition Zposition Zrotation Xrotation Yrotation 
					JOINT Head
					{
						OFFSET 6.45672 0.0 0.0
						CHANNELS 6 Xposition Yposition Zposition Zrotation Xrotation Yrotation 
						End Site
						{
							OFFSET 0.0 0.0 0.0
						}
					}
				}
				JOINT Shoulder_L
				{
					OFFSET 12.9942 -0.242716 4.98039
					CHANNELS 6 Xposition Yposition Zposition Zrotation Xrotation Yrotation 
					JOINT UpperArm_L
					{
						OFFSET 5.34809 0.0 0.0
						CHANNELS 6 Xposition Yposition Zposition Zrotation Xrotation Yrotation 
						JOINT LowerArm_L
						{
							OFFSET 24.3286 1.87007e-05 0.0
							CHANNELS 6 Xposition Yposition Zposition Zrotation Xrotation Yrotation 
							JOINT Hand_L
							{
								OFFSET 22.2916 0.0 0.0
								CHANNELS 6 Xposition Yposition Zposition Zrotation Xrotation Yrotation 
								End Site
								{
									OFFSET 0.0 0.0 0.0
								}
							}
						}
					}
				}
				JOINT Shoulder_R
				{
					OFFSET 12.9945 -0.242716 -4.98039
					CHANNELS 6 Xposition Yposition Zposition Zrotation Xrotation Yrotation 
					JOINT UpperArm_R
					{
						OFFSET -5.34813 0.0 0.0
						CHANNELS 6 Xposition Yposition Zposition Zrotation Xrotation Yrotation 
						JOINT LowerArm_R
						{
							OFFSET -24.3289 0.000322201 0.0
							CHANNELS 6 Xposition Yposition Zposition Zrotation Xrotation Yrotation 
							JOINT Hand_R
							{
								OFFSET -22.2915 -0.000108084 0.0
								CHANNELS 6 Xposition Yposition Zposition Zrotation Xrotation Yrotation 
								End Site
								{
									OFFSET 0.0 0.0 0.0
								}
							}
						}
					}
				}
			}
		}
		JOINT UpperLeg_L
		{
			OFFSET -2.19248 -6.46944 0.0
			CHANNELS 6 Xposition Yposition Zposition Zrotation Xrotation Yrotation 
			JOINT LowerLeg_L
			{
				OFFSET 39.0811 0.0 -1.23785e-05
				CHANNELS 6 Xposition Yposition Zposition Zrotation Xrotation Yrotation 
				JOINT Foot_L
				{
					OFFSET 40.9854 0.0 -1.26872e-05
					CHANNELS 6 Xposition Yposition Zposition Zrotation Xrotation Yrotation 
					JOINT Toes_L
					{
						OFFSET 11.7543 0.0 0.0
						CHANNELS 6 Xposition Yposition Zposition Zrotation Xrotation Yrotation 
						End Site
						{
							OFFSET 0.0 0.0 0.0
						}
					}
				}
			}
		}
		JOINT UpperLeg_R
		{
			OFFSET -2.19251 6.46944 0.0
			CHANNELS 6 Xposition Yposition Zposition Zrotation Xrotation Yrotation 
			JOINT LowerLeg_R
			{
				OFFSET -39.0811 -0.00228153 -0.0401928
				CHANNELS 6 Xposition Yposition Zposition Zrotation Xrotation Yrotation 
				JOINT Foot_R
				{
					OFFSET -40.9854 0.0 0.0
					CHANNELS 6 Xposition Yposition Zposition Zrotation Xrotation Yrotation 
					JOINT Toes_R
					{
						OFFSET -11.7543 0.0 0.0
						CHANNELS 6 Xposition Yposition Zposition Zrotation Xrotation Yrotation 
						End Site
						{
							OFFSET 0.0 0.0 0.0
						}
					}
				}
			}
		}
	}
}
MOTION
Frames:	8
Frame Time:	0.0333333
0.000000 0.000000 0.000000 0.000000 0.000000 -0.000000 3.669900 89.174800 -34.535600 92.475800 -11.127200 7.986270 15.735700 0.000005 -0.000001 88.059000 83.522000 -89.090700 8.984550 -0.406207 -0.000000 5.179750 -0.414639 -2.042400 16.377300 -0.000001 -0.000001 -5.187840 0.939101 -1.424780 6.456720 -0.000001 -0.000000 -15.987800 0.414409 3.583620 12.994200 -0.242716 4.980390 -91.408100 4.943160 -74.078400 5.348090 -0.000007 -0.000001 -60.817600 26.153100 -20.925700 24.328600 0.000019 0.000005 11.454300 22.833100 -27.571900 22.291600 -0.000001 0.000005 11.674600 5.246090 1.535830 12.994500 -0.242716 -4.980390 88.471100 11.212600 -82.184400 -5.348130 -0.000001 -0.000004 -65.732300 24.060600 -3.225800 -24.328900 0.000322 -0.000009 2.425750 11.338500 -12.173400 -22.291500 -0.000108 -0.000004 12.839400 5.327710 -0.716704 -2.192480 -6.469440 -0.000000 179.902000 -15.630300 -2.996850 39.081100 -0.000007 -0.000012 -0.210627 0.291868 35.816600 40.985400 -0.000006 -0.000013 2.288200 3.114610 -75.461500 11.754300 -0.000000 0.000003 -0.000120 -0.001202 -16.623500 -2.192510 6.469440 -0.000001 167.940000 5.676430 170.613000 -39.081100 -0.002282 -0.040193 0.202425 -0.071157 70.353200 -40.985400 0.000008 0.000006 4.152100 -1.614340 -50.345000 -11.754300 -0.000006 -0.000006 -0.015010 -0.137879 -22.198500
0.000000 0.000000 0.000000 0.000000 0.000000 -0.000000 3.350690 89.550000 -32.145800 91.497400 -9.455880 7.600090 15.735700 0.000005 -0.000001 82.215700 82.905800 -83.030600 8.984550 -0.406207 -0.000000 6.281220 -1.905650 -1.523660 16.377300 -0.000001 -0.000001 -3.988710 0.294559 -1.643010 6.456720 -0.000001 -0.000000 -14.935000 0.275279 3.246280 12.994200 -0.242716 4.980390 -91.294600 4.562460 -74.140300 5.348090 -0.000007 -0.000001 -56.973700 26.618600 -26.581500 24.328600 0.000019 0.000005 11.781000 21.783600 -29.336700 22.291600 -0.000001 0.000005 11.927300 5.259840 1.171430 12.994500 -0.242716 -4.980390 88.245000 11.397000 -81.186300 -5.348130 -0.000001 -0.000004 -67.282900 22.332100 0.348005 -24.328900 0.000322 -0.000009 2.052860 13.918500 -8.480600 -22.291500 -0.000108 -0.000004 12.409100 5.286930 0.435120 -2.192480 -6.469440 -0.000000 -178.457000 -15.650600 0.059775 39.081100 -0.000007 -0.000012 -0.182236 0.280669 32.995700 40.985400 -0.000006 -0.000013 2.523080 5.202930 -75.764100 11.754300 -0.000000 0.000003 -0.000105 -0.001077 -16.618800 -2.192510 6.469440 -0.000001 171.017000 8.223070 166.657000 -39.081100 -0.002282 -0.040193 0.171095 -0.061136 70.001500 -40.985400 0.000008 0.000006 4.299180 -1.653560 -53.350000 -11.754300 -0.000006 -0.000006 -0.014719 -0.136040 -22.123100
0.000000 0.000000 0.000000 0.000000 0.000000 -0.000000 3.056430 89.896300 -29.846500 90.748800 -8.317160 6.760340 15.735700 0.000005 -0.000001 77.750700 82.522400 -78.427800 8.984550 -0.406207 -0.000000 6.838340 -3.157030 -1.164430 16.377300 -0.000001 -0.000001 -2.464830 -0.034039 -1.732490 6.456720 -0.000001 -0.000000 -13.751800 0.266999 2.924840 12.994200 -0.242716 4.980390 -91.233600 4.176150 -73.527300 5.348090 -0.000007 -0.000001 -53.122400 26.714100 -31.521300 24.328600 0.000019 0.000005 12.223800 20.876500 -31.297600 22.291600 -0.000001 0.000005 11.711700 5.265170 1.028340 12.994500 -0.242716 -4.980390 88.029000 11.473500 -80.184600 -5.348130 -0.000001 -0.000004 -68.595100 20.737500 4.199060 -24.328900 0.000322 -0.000009 1.571760 13.666100 -6.628460 -22.291500 -0.000108 -0.000004 12.462800 5.266490 0.992850 -2.192480 -6.469440 -0.000000 -177.207000 -15.618400 2.711220 39.081100 -0.000007 -0.000012 -0.147522 0.258985 29.666700 40.985400 -0.000006 -0.000013 2.519350 6.847780 -75.726800 11.754300 -0.000000 0.000003 -0.000063 -0.000691 -16.604300 -2.192510 6.469440 -0.000001 174.079000 10.604000 162.682000 -39.081100 -0.002282 -0.040193 0.127929 -0.054051 66.578700 -40.985400 0.000008 0.000006 4.360280 -2.338510 -56.510400 -11.754300 -0.000006 -0.000006 -0.014005 -0.131460 -21.935200
0.000000 0.000000 0.000000 0.000000 0.000000 -0.000000 2.709860 90.176000 -27.521900 90.123100 -7.406250 5.980010 15.735700 0.000005 -0.000001 74.364400 82.143800 -74.878900 8.984550 -0.406207 -0.000000 7.361310 -4.217190 -0.756896 16.377300 -0.000001 -0.000001 -0.984508 -0.199688 -1.985370 6.456720 -0.000001 -0.000000 -12.599900 0.501952 2.479800 12.994200 -0.242716 4.980390 -91.231800 3.959120 -72.701700 5.348090 -0.000007 -0.000001 -49.965900 26.145800 -35.281500 24.328600 0.000019 0.000005 12.935500 20.149500 -33.694300 22.291600 -0.000001 0.000005 11.442600 5.274270 0.782261 12.994500 -0.242716 -4.980390 87.797100 11.399000 -78.986300 -5.348130 -0.000001 -0.000004 -69.365900 19.723900 7.777290 -24.328900 0.000322 -0.000009 1.376630 12.507000 -6.336940 -22.291500 -0.000108 -0.000004 11.784700 5.278740 0.659936 -2.192480 -6.469440 -0.000000 -176.241000 -15.795600 5.362500 39.081100 -0.000007 -0.000012 -0.009841 0.019827 26.397400 40.985400 -0.000006 -0.000013 4.437830 7.714330 -75.899900 11.754300 -0.000000 0.000003 -0.646001 -0.798873 -16.258100 -2.192510 6.469440 -0.000001 177.211000 12.874400 159.859000 -39.081100 -0.002282 -0.040193 0.079858 -0.044673 59.767800 -40.985400 0.000008 0.000006 5.303970 -3.085390 -59.167800 -11.754300 -0.000006 -0.000006 -0.015282 -0.139584 -22.268600
0.000000 0.000000 0.000000 0.000000 0.000000 -0.000000 2.309900 90.357400 -25.142800 89.735400 -6.556780 5.174390 15.735700 0.000005 -0.000001 71.495300 81.787100 -71.861200 8.984550 -0.406207 -0.000000 7.818140 -5.191940 -0.376443 16.377300 -0.000001 -0.000001 0.539656 -0.263209 -2.337640 6.456720 -0.000001 -0.000000 -11.852400 0.946990 1.669170 12.994200 -0.242716 4.980390 -91.231400 3.779220 -71.938100 5.348090 -0.000007 -0.000001 -48.066200 25.005200 -37.456600 24.328600 0.000019 0.000005 13.617300 19.072400 -36.551900 22.291600 -0.000001 0.000005 11.445800 5.283660 0.526087 12.994500 -0.242716 -4.980390 87.567800 11.302500 -77.771700 -5.348130 -0.000001 -0.000004 -69.708500 19.604100 10.806300 -24.328900 0.000322 -0.000009 1.390370 11.374100 -7.021890 -22.291500 -0.000108 -0.000004 10.497700 5.295600 0.194124 -2.192480 -6.469440 -0.000000 -175.231000 -15.831000 7.097000 39.081100 -0.000007 -0.000012 -0.013316 0.029324 24.423500 40.985400 -0.000006 -0.000013 3.891230 9.143420 -74.469500 11.754300 -0.000000 0.000003 -0.989824 -1.222960 -17.846200 -2.192510 6.469440 -0.000001 -179.840000 15.465600 158.303000 -39.081100 -0.002282 -0.040193 0.040620 -0.031774 49.627700 -40.985400 0.000008 0.000006 5.875150 -2.620960 -60.341100 -11.754300 -0.000006 -0.000006 -0.015286 -0.139607 -22.269500
0.000000 0.000000 0.000000 0.000000 0.000000 -0.000000 1.890240 90.374900 -22.707900 89.497000 -5.793370 4.281720 15.735700 0.000005 -0.000001 69.132000 81.491100 -69.364700 8.984550 -0.406207 -0.000000 8.157070 -6.035990 -0.034575 16.377300 -0.000001 -0.000001 2.005860 -0.210964 -2.776840 6.456720 -0.000001 -0.000000 -11.494500 1.496180 1.009540 12.994200 -0.242716 4.980390 -91.231400 3.604640 -71.124900 5.348090 -0.000007 -0.000001 -46.990900 23.915700 -38.533300 24.328600 0.000019 0.000005 14.042900 17.711000 -39.427400 22.291600 -0.000001 0.000005 11.813900 5.295700 0.192851 12.994500 -0.242716 -4.980390 87.345800 11.228900 -76.609400 -5.348130 -0.000001 -0.000004 -69.985100 20.496900 13.189200 -24.328900 0.000322 -0.000009 1.482900 10.695800 -7.946040 -22.291500 -0.000108 -0.000004 9.882730 5.310480 -0.223647 -2.192480 -6.469440 -0.000000 -174.473000 -15.629700 8.409820 39.081100 -0.000007 -0.000012 -0.016104 0.037806 23.072600 40.985400 -0.000006 -0.000013 3.406070 10.142800 -73.385800 11.754300 -0.000000 0.000003 -0.829137 -1.031470 -19.358200 -2.192510 6.469440 -0.000001 -176.851000 18.829300 157.592000 -39.081100 -0.002282 -0.040193 0.014376 -0.014648 37.129600 -40.985400 0.000008 0.000006 5.594120 0.716222 -58.709100 -11.754300 -0.000006 -0.000006 -0.016066 -0.144428 -22.467500
0.000000 0.000000 0.000000 0.000000 0.000000 -0.000000 1.371960 90.134300 -20.107100 89.023000 -5.021690 3.491140 15.735700 0.000005 -0.000001 67.636400 81.183200 -67.607000 8.984550 -0.406207 -0.000000 8.586440 -6.676740 0.560420 16.377300 -0.000001 -0.000001 3.323250 -0.092482 -3.233420 6.456720 -0.000001 -0.000000 -11.784300 1.970070 0.614876 12.994200 -0.242716 4.980390 -91.248800 3.525260 -70.479000 5.348090 -0.000007 -0.000001 -46.549600 23.056000 -38.656100 24.328600 0.000019 0.000005 14.096400 16.062000 -42.228000 22.291600 -0.000001 0.000005 12.294000 5.303440 -0.023981 12.994500 -0.242716 -4.980390 87.159600 11.111200 -75.562400 -5.348130 -0.000001 -0.000004 -70.104800 21.268700 14.646700 -24.328900 0.000322 -0.000009 1.591200 10.684600 -8.526800 -22.291500 -0.000108 -0.000004 9.653650 5.325150 -0.644372 -2.192480 -6.469440 -0.000000 -173.152000 -15.674400 9.441480 39.081100 -0.000007 -0.000012 -0.020296 0.047737 23.033500 40.985400 -0.000006 -0.000013 2.998330 11.536000 -73.419500 11.754300 -0.000000 0.000003 -0.635765 -0.772175 -19.507300 -2.192510 6.469440 -0.000001 -172.708000 22.880100 156.781000 -39.081100 -0.002282 -0.040193 0.041380 -0.079509 25.585300 -40.985400 0.000008 0.000006 7.433010 5.293720 -56.770100 -11.754300 -0.000006 -0.000006 -0.016429 -0.146634 -22.558100
0.000000 0.000000 0.000000 0.000000 0.000000 -0.000000 0.686527 89.569700 -17.023000 88.499500 -4.057040 3.253770 15.735700 0.000005 -0.000001 67.127600 80.722600 -66.798100 8.984550 -0.406207 -0.000000 9.405140 -7.166650 1.249430 16.377300 -0.000001 -0.000001 4.200350 -0.016161 -3.590990 6.456720 -0.000001 -0.000000 -12.641000 2.258310 0.659188 12.994200 -0.242716 4.980390 -91.308200 3.628300 -70.157900 5.348090 -0.000007 -0.000001 -46.420300 22.371600 -38.057100 24.328600 0.000019 0.000005 14.157100 14.647200 -44.929900 22.291600 -0.000001 0.000005 12.544900 5.315070 -0.354198 12.994500 -0.242716 -4.980390 87.038400 11.100800 -74.959600 -5.348130 -0.000001 -0.000004 -70.019600 20.960100 15.362000 -24.328900 0.000322 -0.000009 1.652570 10.764900 -8.786140 -22.291500 -0.000108 -0.000004 9.840280 5.328870 -0.752492 -2.192480 -6.469440 -0.000000 -171.378000 -15.367400 10.506000 39.081100 -0.000007 -0.000012 -0.025638 0.055884 24.644500 40.985400 -0.000006 -0.000013 2.626250 12.984900 -74.003400 11.754300 -0.000000 0.000003 -0.011366 -0.113589 -21.206600 -2.192510 6.469440 -0.000001 -169.151000 26.124200 154.678000 -39.081100 -0.002282 -0.040193 0.067471 -0.160623 21.771900 -40.985400 0.000008 0.000006 10.240500 6.349030 -55.870800 -11.754300 -0.000006 -0.000006 -0.016589 -0.147602 -22.597900
